<svg width="1649" height="1043" xmlns="http://www.w3.org/2000/svg" xmlns:xlink="http://www.w3.org/1999/xlink" xml:space="preserve" overflow="hidden"><g transform="translate(-499 -59)"><path d="M739 579.74 829.5 344 920 579.74 829.5 817 739 579.74Z" fill="#613B5F" fill-rule="evenodd"/><path d="M739.618 580 830 344 645.174 344 503 580 739.618 580Z" fill="#BA8EB8" fill-rule="evenodd"/><path d="M739.618 580 830 817 645.174 817 503 580 739.618 580Z" fill="#814E7E" fill-rule="evenodd"/><path d="M1077 579.493 1133.5 201 1190 579.493 1133.5 959 1077 579.493Z" fill="#00709A" fill-rule="evenodd"/><path d="M1076.28 580 1133 201 933.45 201 820 580 1076.28 580Z" fill="#48CDFF" fill-rule="evenodd"/><path d="M1076.28 580 1133 959 933.45 959 820 580 1076.28 580Z" fill="#0095CD" fill-rule="evenodd"/><path d="M1886 579.74 1796.25 344 1706 579.74 1796.25 817 1886 579.74Z" fill="#263A46" fill-rule="evenodd"/><path d="M1885.87 580 1796 344 1980.83 344 2123 580 1885.87 580Z" fill="#9FBBCC" fill-rule="evenodd"/><path d="M1885.87 580 1796 817 1980.83 817 2123 580 1885.87 580Z" fill="#324D5E" fill-rule="evenodd"/><path d="M1548 579.493 1492 201 1435 579.493 1492 959 1548 579.493Z" fill="#3E590E" fill-rule="evenodd"/><path d="M1548.31 580 1492 201 1691.37 201 1805 580 1548.31 580Z" fill="#7BB21B" fill-rule="evenodd"/><path d="M1548.31 580 1492 959 1691.37 959 1805 580 1548.31 580Z" fill="#5C8614" fill-rule="evenodd"/><path d="M1148 580 1203.27 59.0001 1416.72 59.0001 1473 580 1148 580Z" fill="#F3D400" fill-rule="evenodd"/><path d="M1148 580 1203.27 1102 1416.72 1102 1473 580 1148 580Z" fill="#FFC000" fill-rule="evenodd"/><path d="M1885 582 1885 578 2121.98 578 2123 579.5 2121.98 582 1885 582Z" fill="#FFFFFF" fill-rule="evenodd" fill-opacity="0.25098"/><path d="M1548 582 1548 578 1804.49 578 1805 579.5 1804.49 582 1548 582Z" fill="#FFFFFF" fill-rule="evenodd" fill-opacity="0.25098"/><path d="M740 582 740 578 503.506 578 503 579.5 503.506 582 740 582Z" fill="#FFFFFF" fill-rule="evenodd" fill-opacity="0.25098"/><path d="M1077 582 1077 578 821.016 578 820 579.5 821.016 582 1077 582Z" fill="#FFFFFF" fill-rule="evenodd" fill-opacity="0.25098"/><path d="M1148.51 582 1148 579.5 1148.51 578 1473 578 1473 579.5 1473 582 1148.51 582Z" fill="#FFFFFF" fill-rule="evenodd" fill-opacity="0.25098"/><path d="M2123 579.74 1980.54 344 1978 344 2117.91 579.74 1978 817 1980.54 817 2123 579.74Z" fill="#FFFFFF" fill-rule="evenodd" fill-opacity="0.25098"/><path d="M1796 344 1885.44 578.219 1885.44 582.274 1796 817 1798.54 817 1889 582.274 1889 578.219 1798.54 344 1796 344Z" fill="#FFFFFF" fill-rule="evenodd" fill-opacity="0.25098"/><path d="M1805 579.493 1691.07 201 1687 201 1799.91 579.493 1687 959 1691.07 959 1805 579.493Z" fill="#FFFFFF" fill-rule="evenodd" fill-opacity="0.25098"/><path d="M1554 577.971 1496.57 201 1492 201 1548.41 577.971 1548.41 582.03 1492 959 1496.57 959 1554 582.03 1554 577.971Z" fill="#FFFFFF" fill-rule="evenodd" fill-opacity="0.25098"/><path d="M503 579.739 644.474 344 647 344 508.053 579.739 647 817 644.474 817 503 579.739Z" fill="#FFFFFF" fill-rule="evenodd" fill-opacity="0.25098"/><path d="M830 344 740.558 578.219 740.558 582.274 830 817 827.459 817 737 582.274 737 578.219 827.459 344 830 344Z" fill="#FFFFFF" fill-rule="evenodd" fill-opacity="0.25098"/><path d="M820 579.493 933.442 201 938 201 825.571 579.493 938 959 933.442 959 820 579.493Z" fill="#FFFFFF" fill-rule="evenodd" fill-opacity="0.25098"/><path d="M1071 577.97 1128.43 201 1133 201 1076.08 577.97 1076.08 582.029 1133 959 1128.43 959 1071 582.029 1071 577.97Z" fill="#FFFFFF" fill-rule="evenodd" fill-opacity="0.25098"/><path d="M1473 579.993 1417.05 59.0001 1411 59.0001 1465.94 579.993 1411 1102 1417.05 1102 1473 579.993Z" fill="#FFFFFF" fill-rule="evenodd" fill-opacity="0.25098"/><path d="M1148 579.993 1202.96 59.0001 1208 59.0001 1155.56 579.993 1208 1102 1202.96 1102 1148 579.993Z" fill="#FFFFFF" fill-rule="evenodd" fill-opacity="0.25098"/><path d="M734.894 582 825 346 640.739 346 499 582 734.894 582Z" fill="#BA8EB8" fill-rule="evenodd"/><path d="M1073.28 580 1130 201 930.45 201 817 580 1073.28 580Z" fill="#48CDFF" fill-rule="evenodd"/><path d="M1149 583 1204.27 61.9997 1417.72 61.9997 1474 583 1149 583Z" fill="#F3D400" fill-rule="evenodd"/><path d="M1550.31 580 1494 201 1693.37 201 1807 580 1550.31 580Z" fill="#7BB21B" fill-rule="evenodd"/><path d="M1885.87 582 1796 346 1980.83 346 2123 582 1885.87 582Z" fill="#9FBBCC" fill-rule="evenodd"/><text fill="#FFFFFF" font-family="Aptos,Aptos_MSFontService,sans-serif" font-weight="700" font-size="303" transform="matrix(1 0 0 1 837.856 669)">NBility</text></g></svg>